<svg width="12" height="12" viewBox="0 0 12 12" fill="none" xmlns="http://www.w3.org/2000/svg">
<path d="M6.0001 0.600098C4.56793 0.600098 3.19442 1.16902 2.18172 2.18172C1.16902 3.19442 0.600098 4.56793 0.600098 6.0001C0.600098 7.43227 1.16902 8.80578 2.18172 9.81847C3.19442 10.8312 4.56793 11.4001 6.0001 11.4001C7.43227 11.4001 8.80578 10.8312 9.81847 9.81847C10.8312 8.80578 11.4001 7.43227 11.4001 6.0001C11.4001 4.56793 10.8312 3.19442 9.81847 2.18172C8.80578 1.16902 7.43227 0.600098 6.0001 0.600098V0.600098ZM1.2661 6.4081H2.7721C2.7961 6.9541 2.8723 7.4965 3.0001 8.0281H1.7041C1.46242 7.51863 1.31407 6.96994 1.2661 6.4081V6.4081ZM6.4081 3.1681V1.3141C6.98631 1.53383 7.46143 1.96187 7.7401 2.5141C7.8631 2.7223 7.9717 2.9389 8.0641 3.1621L6.4081 3.1681V3.1681ZM8.3401 3.9781C8.4793 4.5079 8.5621 5.0509 8.5861 5.5981H6.4081V3.9781H8.3401V3.9781ZM5.5921 1.3141V3.1681H3.9361C4.02865 2.94472 4.13693 2.72817 4.2601 2.5201C4.53758 1.96561 5.01285 1.53529 5.5921 1.3141V1.3141ZM5.5921 3.9781V5.5981H3.4201C3.4441 5.0509 3.5269 4.5079 3.6661 3.9781H5.5921V3.9781ZM2.7721 5.5921H1.2661C1.31407 5.03025 1.46242 4.48157 1.7041 3.9721H3.0001C2.87205 4.50349 2.7957 5.04601 2.7721 5.5921V5.5921ZM3.4201 6.4081H5.5921V8.0281H3.6661C3.52692 7.49834 3.44446 6.95529 3.4201 6.4081V6.4081ZM5.5981 8.8081V10.6621C5.01989 10.4424 4.54477 10.0143 4.2661 9.4621C4.14293 9.25402 4.03466 9.03748 3.9421 8.8141L5.5981 8.8081V8.8081ZM6.4081 10.6621V8.8381H8.0641C7.97154 9.06148 7.86327 9.27802 7.7401 9.4861C7.46143 10.0383 6.98631 10.4664 6.4081 10.6861V10.6621V10.6621ZM6.4081 7.9981V6.3781H8.5801C8.55574 6.92529 8.47328 7.46834 8.3341 7.9981H6.4081ZM9.2341 6.3781H10.7401C10.6921 6.93994 10.5438 7.48863 10.3021 7.9981H9.0001C9.1261 7.4761 9.2023 6.9439 9.2281 6.4081L9.2341 6.3781V6.3781ZM9.2341 5.5681C9.20662 5.03188 9.12827 4.49949 9.0001 3.9781H10.2961C10.5379 4.4881 10.6861 5.0365 10.7341 5.5981L9.2341 5.5681ZM9.8341 3.1681H8.7601C8.56577 2.62228 8.28411 2.11163 7.9261 1.6561C8.67273 1.99125 9.32127 2.51173 9.8101 3.1681H9.8341V3.1681ZM4.0741 1.6561C3.71609 2.11163 3.43442 2.62228 3.2401 3.1681H2.1901C2.67893 2.51173 3.32747 1.99125 4.0741 1.6561V1.6561ZM2.1841 8.8561H3.2401C3.43442 9.40192 3.71609 9.91256 4.0741 10.3681C3.3254 10.0279 2.67667 9.50107 2.1901 8.8381L2.1841 8.8561V8.8561ZM7.9201 10.3681C8.27811 9.91256 8.55977 9.40192 8.7541 8.8561H9.8101C9.31828 9.50368 8.67 10.0157 7.9261 10.3441L7.9201 10.3681Z" fill="#014EFF"/>
</svg>
