<svg width="31" height="22" viewBox="0 0 31 22" fill="none" xmlns="http://www.w3.org/2000/svg">
<path d="M30.3626 3.4359C30.1856 2.7686 29.8383 2.16037 29.3557 1.67243C28.873 1.18448 28.2721 0.83405 27.6134 0.65641C25.1956 -6.1133e-07 15.5013 0 15.5013 0C15.5013 0 5.80697 -6.1133e-07 3.38909 0.65641C2.73203 0.835703 2.13295 1.18682 1.6518 1.67461C1.17065 2.1624 0.824332 2.76976 0.647481 3.4359C1.48338e-05 5.88718 0 11 0 11C0 11 1.48338e-05 16.1128 0.647481 18.5641C0.824332 19.2302 1.17065 19.8376 1.6518 20.3254C2.13295 20.8132 2.73203 21.1643 3.38909 21.3436C5.80697 22 15.5013 22 15.5013 22C15.5013 22 25.1956 22 27.6134 21.3436C28.2703 21.1644 28.8691 20.8132 29.3498 20.3254C29.8306 19.8376 30.1763 19.2302 30.3525 18.5641C31 16.1128 31 11 31 11C31 11 31.0101 5.88718 30.3626 3.4359ZM12.4056 15.7154V6.28461L20.4635 11L12.4056 15.7154Z" fill="white"/>
</svg>
