<svg width="116" height="40" viewBox="0 0 116 40" fill="none" xmlns="http://www.w3.org/2000/svg">
<path d="M19.856 37.9729H8.57912C7.88359 37.9729 7.21655 37.6966 6.72473 37.2048L0.768111 31.2481C0.276298 30.7563 0 30.0893 0 29.3937L0 10.624C0 9.17562 1.17413 8.00149 2.6225 8.00149H7.49284L7.49284 3.13114C7.49284 1.68277 8.66698 0.508642 10.1153 0.508642L28.8851 0.508642C29.5806 0.508642 30.2477 0.78494 30.7395 1.27675L36.6961 7.23338C37.1879 7.72519 37.4642 8.39223 37.4642 9.08776V12.8718C37.4642 14.3202 36.2901 15.4943 34.8417 15.4943H32.5939C31.1455 15.4943 29.9714 14.3202 29.9714 12.8718L29.9714 10.624C29.9714 9.17562 28.7972 8.00149 27.3489 8.00149L7.49284 8.00149L7.49284 27.8575C7.49284 29.3059 8.66698 30.48 10.1153 30.48L19.856 30.48C21.3044 30.48 22.4785 31.6542 22.4785 33.1025L22.4785 35.3504C22.4785 36.7987 21.3044 37.9729 19.856 37.9729Z" fill="#014EFF"/>
<path d="M39.9872 0.409214H51.2641C51.9597 0.409214 52.6267 0.685516 53.1185 1.17733L59.0752 7.13395C59.567 7.62576 59.8433 8.2928 59.8433 8.98833L59.8433 27.7581C59.8433 29.2065 58.6691 30.3806 57.2208 30.3806H52.3504V35.2509C52.3504 36.6993 51.1763 37.8734 49.7279 37.8734L30.9582 37.8734C30.2626 37.8734 29.5956 37.5971 29.1038 37.1053L23.1472 31.1487C22.6553 30.6569 22.379 29.9898 22.379 29.2943V25.5102C22.379 24.0619 23.5532 22.8877 25.0015 22.8877H27.2494C28.6978 22.8877 29.8719 24.0619 29.8719 25.5102L29.8719 27.7581C29.8719 29.2065 31.046 30.3806 32.4944 30.3806L52.3504 30.3806L52.3504 10.5246C52.3504 9.07619 51.1763 7.90206 49.7279 7.90206L39.9872 7.90206C38.5389 7.90206 37.3647 6.72793 37.3647 5.27956L37.3647 3.03171C37.3647 1.58335 38.5389 0.409214 39.9872 0.409214Z" fill="#014EFF"/>
<path d="M67.4584 24.706C67.4584 24.9525 67.548 25.1654 67.7273 25.3446C67.9066 25.5239 68.1194 25.6135 68.3659 25.6135C68.6236 25.6135 68.8365 25.5239 69.0045 25.3446C69.1838 25.1654 69.2734 24.9525 69.2734 24.706C69.2734 24.4483 69.1838 24.2355 69.0045 24.0674C68.8365 23.8882 68.6236 23.7985 68.3659 23.7985C68.1194 23.7985 67.9066 23.8882 67.7273 24.0674C67.548 24.2355 67.4584 24.4483 67.4584 24.706ZM66.1308 37.5453L65.3914 38.6545C65.5034 38.8001 65.6322 38.9234 65.7779 39.0242C65.9235 39.125 66.086 39.1978 66.2652 39.2427C66.4445 39.2987 66.6462 39.3267 66.8702 39.3267C67.3408 39.3267 67.7441 39.2203 68.0802 39.0074C68.4163 38.7945 68.6684 38.4864 68.8365 38.0831C69.0157 37.6798 69.1053 37.198 69.1053 36.6378V27.899H67.7609V36.4698C67.7609 36.8283 67.7329 37.1196 67.6769 37.3437C67.6209 37.5677 67.5312 37.7302 67.408 37.831C67.296 37.9318 67.1447 37.9823 66.9543 37.9823C66.775 37.9823 66.6125 37.943 66.4669 37.8646C66.3325 37.7862 66.2204 37.6798 66.1308 37.5453Z" fill="#181A1C"/>
<path d="M71.206 31.7643C71.206 32.5373 71.3797 33.2319 71.727 33.8481C72.0855 34.4531 72.5672 34.9293 73.1722 35.2766C73.7772 35.6239 74.455 35.7976 75.2057 35.7976C75.9675 35.7976 76.6453 35.6239 77.2391 35.2766C77.8441 34.9293 78.3203 34.4531 78.6676 33.8481C79.0261 33.2319 79.2054 32.5373 79.2054 31.7643C79.2054 30.98 79.0261 30.2854 78.6676 29.6804C78.3203 29.0754 77.8441 28.5993 77.2391 28.252C76.6453 27.9046 75.9675 27.731 75.2057 27.731C74.455 27.731 73.7772 27.9046 73.1722 28.252C72.5672 28.5993 72.0855 29.0754 71.727 29.6804C71.3797 30.2854 71.206 30.98 71.206 31.7643ZM72.5672 31.7643C72.5672 31.2265 72.6793 30.7504 72.9034 30.3358C73.1386 29.9101 73.4523 29.5796 73.8445 29.3443C74.2478 29.109 74.7015 28.9914 75.2057 28.9914C75.7098 28.9914 76.158 29.109 76.5501 29.3443C76.9534 29.5796 77.2671 29.9101 77.4912 30.3358C77.7265 30.7504 77.8441 31.2265 77.8441 31.7643C77.8441 32.302 77.7265 32.7782 77.4912 33.1927C77.2671 33.6073 76.9534 33.9378 76.5501 34.1842C76.158 34.4195 75.7098 34.5372 75.2057 34.5372C74.7015 34.5372 74.2478 34.4195 73.8445 34.1842C73.4523 33.9378 73.1386 33.6073 72.9034 33.1927C72.6793 32.7782 72.5672 32.302 72.5672 31.7643Z" fill="#181A1C"/>
<path d="M82.3967 32.6045V27.899H81.0522V32.7726C81.0522 33.6913 81.2931 34.4251 81.7749 34.9741C82.2566 35.5231 82.9008 35.7976 83.7075 35.7976C84.2229 35.7976 84.671 35.6855 85.0519 35.4615C85.4328 35.2262 85.7521 34.8789 86.0098 34.4195V35.6295H87.3543V27.899H86.0098V32.6045C86.0098 32.9855 85.9258 33.3216 85.7577 33.6129C85.6009 33.9042 85.3712 34.1338 85.0687 34.3019C84.7774 34.4587 84.4357 34.5372 84.0436 34.5372C83.5058 34.5372 83.0969 34.3691 82.8168 34.033C82.5367 33.6969 82.3967 33.2207 82.3967 32.6045Z" fill="#181A1C"/>
<path d="M91.226 27.899H89.8816V35.6295H91.226V27.899ZM93.562 29.3779L94.3014 28.2688C94.0998 28.0559 93.8757 27.9158 93.6292 27.8486C93.3939 27.7702 93.1363 27.731 92.8562 27.731C92.4977 27.731 92.1447 27.871 91.7974 28.1511C91.4501 28.4312 91.1644 28.8121 90.9404 29.2939C90.7275 29.7644 90.6211 30.3078 90.6211 30.924H91.226C91.226 30.5543 91.2597 30.2238 91.3269 29.9325C91.4053 29.6412 91.5397 29.4115 91.7302 29.2435C91.9207 29.0754 92.184 28.9914 92.5201 28.9914C92.7441 28.9914 92.929 29.025 93.0746 29.0922C93.2203 29.1482 93.3827 29.2435 93.562 29.3779Z" fill="#181A1C"/>
<path d="M100.6 30.924V35.6295H101.944V30.756C101.944 29.8261 101.703 29.0922 101.221 28.5545C100.751 28.0055 100.107 27.731 99.2888 27.731C98.7847 27.731 98.3365 27.843 97.9444 28.0671C97.5635 28.2912 97.2442 28.6385 96.9865 29.109V27.899H95.642V35.6295H96.9865V30.924C96.9865 30.5431 97.0649 30.207 97.2218 29.9157C97.3898 29.6244 97.6195 29.4003 97.9108 29.2435C98.2133 29.0754 98.5606 28.9914 98.9527 28.9914C99.4905 28.9914 99.8994 29.1538 100.179 29.4787C100.46 29.8036 100.6 30.2854 100.6 30.924Z" fill="#181A1C"/>
<path d="M105.076 33.2431C105.076 32.9631 105.144 32.7222 105.278 32.5205C105.413 32.3189 105.614 32.162 105.883 32.05C106.163 31.9379 106.522 31.8819 106.959 31.8819C107.429 31.8819 107.872 31.9435 108.286 32.0668C108.701 32.1788 109.104 32.3693 109.496 32.6382V31.8483C109.418 31.7475 109.267 31.6186 109.042 31.4618C108.818 31.2937 108.516 31.1481 108.135 31.0248C107.765 30.8904 107.3 30.8232 106.74 30.8232C105.788 30.8232 105.043 31.0528 104.505 31.5122C103.978 31.9603 103.715 32.5597 103.715 33.3104C103.715 33.8369 103.838 34.2851 104.085 34.6548C104.331 35.0245 104.656 35.3102 105.06 35.5119C105.474 35.7023 105.917 35.7976 106.387 35.7976C106.813 35.7976 107.239 35.7191 107.664 35.5623C108.101 35.4054 108.465 35.1646 108.757 34.8397C109.059 34.5148 109.211 34.1058 109.211 33.6129L108.942 32.6045C108.942 33.0079 108.841 33.3664 108.639 33.6801C108.449 33.9826 108.185 34.2179 107.849 34.3859C107.524 34.554 107.155 34.638 106.74 34.638C106.415 34.638 106.124 34.5876 105.866 34.4867C105.62 34.3747 105.424 34.2123 105.278 33.9994C105.144 33.7865 105.076 33.5344 105.076 33.2431ZM104.875 29.6804C104.998 29.5908 105.166 29.4843 105.379 29.3611C105.592 29.2379 105.849 29.1314 106.152 29.0418C106.466 28.9522 106.813 28.9074 107.194 28.9074C107.429 28.9074 107.653 28.9298 107.866 28.9746C108.079 29.0194 108.264 29.0922 108.421 29.1931C108.589 29.2939 108.718 29.4339 108.807 29.6132C108.897 29.7812 108.942 29.9997 108.942 30.2686V35.6295H110.286V30.0837C110.286 29.5796 110.157 29.1538 109.9 28.8065C109.653 28.4592 109.3 28.1959 108.841 28.0167C108.393 27.8262 107.866 27.731 107.261 27.731C106.544 27.731 105.928 27.8374 105.413 28.0503C104.908 28.2632 104.511 28.476 104.219 28.6889L104.875 29.6804Z" fill="#181A1C"/>
<path d="M112.562 22.5213V35.6295H113.907V22.5213H112.562Z" fill="#181A1C"/>
<path d="M71.5564 16.7114H81.3091L81.1773 12.9421H71.7146L71.5564 16.7114ZM76.38 8.80378L78.8314 14.3391L78.5414 15.657L80.6501 19.6899H86.449L76.38 0L66.3374 19.6899H72.1363L74.2713 15.4725L73.955 14.3391L76.38 8.80378Z" fill="#181A1C"/>
<path d="M91.7428 5.58803H99.993V1.23885H91.7428V5.58803ZM91.7428 12.7576H99.7294V8.7247H91.7428V12.7576ZM88.2634 1.23885V19.6899H93.1661V1.23885H88.2634Z" fill="#181A1C"/>
<path d="M106.75 5.58803H115V1.23885H106.75V5.58803ZM106.75 12.7576H114.736V8.7247H106.75V12.7576ZM103.27 1.23885V19.6899H108.173V1.23885H103.27Z" fill="#181A1C"/>
</svg>
