<svg width="6006" height="134" viewBox="0 0 6006 134" fill="none" xmlns="http://www.w3.org/2000/svg">
<path d="M1413.97 15H1445.92L1440.52 84H1419.37L1413.97 15ZM1413.97 109.8C1413.97 105.5 1415.47 102.05 1418.47 99.45C1421.47 96.75 1425.27 95.4 1429.87 95.4C1434.57 95.4 1438.37 96.75 1441.27 99.45C1444.27 102.05 1445.77 105.5 1445.77 109.8C1445.77 114 1444.27 117.4 1441.27 120C1438.37 122.7 1434.57 124.05 1429.87 124.05C1425.27 124.05 1421.47 122.7 1418.47 120C1415.47 117.4 1413.97 114 1413.97 109.8Z" fill="#014EFF"/>
<path d="M1343 82.9488V61.3488H1397.45C1398.15 69.9488 1397.4 78.0488 1395.2 85.6488C1393 93.2488 1389.55 99.8988 1384.85 105.599C1380.15 111.299 1374.25 115.799 1367.15 119.099C1360.05 122.299 1351.9 123.899 1342.7 123.899C1334.2 123.899 1326.35 122.549 1319.15 119.849C1312.05 117.149 1305.85 113.349 1300.55 108.449C1295.35 103.449 1291.3 97.4988 1288.4 90.5988C1285.5 83.5988 1284.05 75.8988 1284.05 67.4988C1284.05 59.0988 1285.55 51.4988 1288.55 44.6988C1291.55 37.8988 1295.75 32.0988 1301.15 27.2988C1306.55 22.3988 1312.9 18.6988 1320.2 16.1988C1327.5 13.5988 1335.4 12.2988 1343.9 12.2988C1351.6 12.2988 1358.45 13.4488 1364.45 15.7488C1370.55 17.9488 1375.9 20.9988 1380.5 24.8988C1385.1 28.6988 1389.1 33.0488 1392.5 37.9488L1365.95 50.6988C1363.85 46.8988 1361.05 43.6988 1357.55 41.0988C1354.05 38.4988 1349.5 37.1988 1343.9 37.1988C1338.6 37.1988 1333.7 38.3488 1329.2 40.6488C1324.7 42.9488 1321.1 46.3488 1318.4 50.8488C1315.8 55.3488 1314.5 60.8988 1314.5 67.4988C1314.5 73.9988 1315.75 79.6488 1318.25 84.4488C1320.75 89.1488 1324.2 92.7488 1328.6 95.2488C1333 97.7488 1338.1 98.9988 1343.9 98.9988C1347.4 98.9988 1350.5 98.6488 1353.2 97.9488C1355.9 97.1488 1358.25 96.0488 1360.25 94.6488C1362.25 93.1488 1363.95 91.3988 1365.35 89.3988C1366.85 87.3988 1368.05 85.2488 1368.95 82.9488H1343Z" fill="#014EFF"/>
<path d="M1240.57 15H1268.47V125.25L1198.12 66.6V120H1170.22V9.75L1240.57 68.4V15Z" fill="#014EFF"/>
<path d="M1118.95 15H1148.65V120H1118.95V15Z" fill="#014EFF"/>
<path d="M1022.27 15H1051.37V120H1022.27V15ZM1040.87 38.55V15H1061.12C1070.72 15 1078.62 16.45 1084.82 19.35C1091.12 22.15 1095.77 26.15 1098.77 31.35C1101.87 36.55 1103.42 42.8 1103.42 50.1C1103.42 57.3 1101.87 63.55 1098.77 68.85C1095.77 74.15 1091.12 78.2 1084.82 81C1078.62 83.8 1070.72 85.2 1061.12 85.2H1040.87V61.8H1061.12C1065.72 61.8 1069.27 60.8 1071.77 58.8C1074.27 56.8 1075.52 53.9 1075.52 50.1C1075.52 46.4 1074.27 43.55 1071.77 41.55C1069.27 39.55 1065.72 38.55 1061.12 38.55H1040.87Z" fill="#014EFF"/>
<path d="M925.595 15H954.695V120H925.595V15ZM944.195 38.55V15H964.445C974.045 15 981.945 16.45 988.145 19.35C994.445 22.15 999.095 26.15 1002.09 31.35C1005.19 36.55 1006.74 42.8 1006.74 50.1C1006.74 57.3 1005.19 63.55 1002.09 68.85C999.095 74.15 994.445 78.2 988.145 81C981.945 83.8 974.045 85.2 964.445 85.2H944.195V61.8H964.445C969.045 61.8 972.595 60.8 975.095 58.8C977.595 56.8 978.845 53.9 978.845 50.1C978.845 46.4 977.595 43.55 975.095 41.55C972.595 39.55 969.045 38.55 964.445 38.55H944.195Z" fill="#014EFF"/>
<path d="M825.833 67.4988C825.833 73.0988 826.933 78.0988 829.133 82.4988C831.333 86.7988 834.433 90.1988 838.433 92.6988C842.433 95.0988 847.133 96.2988 852.533 96.2988C858.033 96.2988 862.733 95.0988 866.633 92.6988C870.633 90.1988 873.733 86.7988 875.933 82.4988C878.133 78.0988 879.233 73.0988 879.233 67.4988C879.233 61.7988 878.183 56.7988 876.083 52.4988C873.983 48.1988 870.933 44.8488 866.933 42.4488C863.033 39.9488 858.233 38.6988 852.533 38.6988C847.133 38.6988 842.433 39.9488 838.433 42.4488C834.433 44.8488 831.333 48.1988 829.133 52.4988C826.933 56.7988 825.833 61.7988 825.833 67.4988ZM795.083 67.4988C795.083 59.1988 796.533 51.6988 799.433 44.9988C802.433 38.1988 806.533 32.3988 811.733 27.5988C816.933 22.6988 822.983 18.9488 829.883 16.3488C836.883 13.6488 844.433 12.2988 852.533 12.2988C860.833 12.2988 868.433 13.6488 875.333 16.3488C882.333 18.9488 888.433 22.6988 893.633 27.5988C898.833 32.3988 902.833 38.1988 905.633 44.9988C908.533 51.6988 909.983 59.1988 909.983 67.4988C909.983 75.6988 908.583 83.2488 905.783 90.1488C902.983 97.0488 899.033 103.049 893.933 108.149C888.833 113.149 882.733 117.049 875.633 119.849C868.633 122.549 860.933 123.899 852.533 123.899C844.133 123.899 836.433 122.549 829.433 119.849C822.433 117.049 816.333 113.149 811.133 108.149C806.033 103.049 802.083 97.0488 799.283 90.1488C796.483 83.2488 795.083 75.6988 795.083 67.4988Z" fill="#014EFF"/>
<path d="M686.99 78.15V52.2H768.74V78.15H686.99ZM750.44 15H779.54V120H750.44V15ZM679.94 15H709.04V120H679.94V15Z" fill="#014EFF"/>
<path d="M596.475 81.5988C598.575 85.2988 600.925 88.4988 603.525 91.1988C606.125 93.7988 608.975 95.7988 612.075 97.1988C615.175 98.5988 618.375 99.2988 621.675 99.2988C624.875 99.2988 627.525 98.5988 629.625 97.1988C631.725 95.6988 632.775 93.5488 632.775 90.7488C632.775 88.7488 632.175 87.0988 630.975 85.7988C629.775 84.3988 627.675 82.9988 624.675 81.5988C621.775 80.1988 617.675 78.4988 612.375 76.4988C609.775 75.4988 606.875 74.1988 603.675 72.5988C600.475 70.8988 597.375 68.7488 594.375 66.1488C591.475 63.5488 589.025 60.3488 587.025 56.5488C585.125 52.7488 584.175 48.2488 584.175 43.0488C584.175 36.4488 585.925 30.8988 589.425 26.3988C592.925 21.7988 597.575 18.2988 603.375 15.8988C609.175 13.4988 615.625 12.2988 622.725 12.2988C630.125 12.2988 636.525 13.4988 641.925 15.8988C647.325 18.1988 651.775 21.1488 655.275 24.7488C658.775 28.2488 661.475 31.7988 663.375 35.3988L641.475 47.5488C639.975 45.0488 638.225 42.9988 636.225 41.3988C634.325 39.6988 632.275 38.3988 630.075 37.4988C627.875 36.5988 625.625 36.1488 623.325 36.1488C620.425 36.1488 618.125 36.7488 616.425 37.9488C614.725 39.1488 613.875 40.7488 613.875 42.7488C613.875 45.0488 614.825 46.9988 616.725 48.5988C618.725 50.0988 621.425 51.5488 624.825 52.9488C628.325 54.2488 632.325 55.6988 636.825 57.2988C640.725 58.6988 644.275 60.3988 647.475 62.3988C650.775 64.2988 653.625 66.5988 656.025 69.2988C658.425 71.8988 660.275 74.8988 661.575 78.2988C662.875 81.6988 663.525 85.4988 663.525 89.6988C663.525 95.2988 662.375 100.249 660.075 104.549C657.875 108.849 654.825 112.449 650.925 115.349C647.125 118.149 642.775 120.249 637.875 121.649C632.975 123.149 627.975 123.899 622.875 123.899C615.675 123.899 608.975 122.649 602.775 120.149C596.675 117.749 591.375 114.449 586.875 110.249C582.375 105.949 578.975 101.199 576.675 95.9988L596.475 81.5988Z" fill="#014EFF"/>
<path d="M493.686 15H527.286L490.086 78V120H460.386V78.3L423.036 15H456.636L475.236 51.75L493.686 15Z" fill="#014EFF"/>
<path d="M342.147 15H371.247V120H342.147V15ZM360.747 38.55V15H380.997C390.597 15 398.497 16.45 404.697 19.35C410.997 22.15 415.647 26.15 418.647 31.35C421.747 36.55 423.297 42.8 423.297 50.1C423.297 57.3 421.747 63.55 418.647 68.85C415.647 74.15 410.997 78.2 404.697 81C398.497 83.8 390.597 85.2 380.997 85.2H360.747V61.8H380.997C385.597 61.8 389.147 60.8 391.647 58.8C394.147 56.8 395.397 53.9 395.397 50.1C395.397 46.4 394.147 43.55 391.647 41.55C389.147 39.55 385.597 38.55 380.997 38.55H360.747Z" fill="#014EFF"/>
<path d="M245.468 15H274.568V120H245.468V15ZM264.068 38.55V15H284.318C293.918 15 301.818 16.45 308.018 19.35C314.318 22.15 318.968 26.15 321.968 31.35C325.068 36.55 326.618 42.8 326.618 50.1C326.618 57.3 325.068 63.55 321.968 68.85C318.968 74.15 314.318 78.2 308.018 81C301.818 83.8 293.918 85.2 284.318 85.2H264.068V61.8H284.318C288.918 61.8 292.468 60.8 294.968 58.8C297.468 56.8 298.718 53.9 298.718 50.1C298.718 46.4 297.468 43.55 294.968 41.55C292.468 39.55 288.918 38.55 284.318 38.55H264.068Z" fill="#014EFF"/>
<path d="M150.392 103.049L151.292 81.5992H205.142L205.892 103.049H150.392ZM177.842 58.0492L164.042 89.5492L165.842 95.9992L153.692 119.999H120.692L177.842 7.94922L235.142 119.999H202.142L190.142 97.0492L191.792 89.5492L177.842 58.0492Z" fill="#014EFF"/>
<path d="M17.8498 78.15V52.2H99.5998V78.15H17.8498ZM81.2998 15H110.4V120H81.2998V15ZM10.7998 15H39.8998V120H10.7998V15Z" fill="#014EFF"/>
<path fill-rule="evenodd" clip-rule="evenodd" d="M2930.97 15L2936.37 84H2957.52L2962.92 15H2930.97ZM2935.47 99.45C2932.47 102.05 2930.97 105.5 2930.97 109.8C2930.97 114 2932.47 117.4 2935.47 120C2938.47 122.7 2942.27 124.05 2946.87 124.05C2951.57 124.05 2955.37 122.7 2958.27 120C2961.27 117.4 2962.77 114 2962.77 109.8C2962.77 105.5 2961.27 102.05 2958.27 99.45C2955.37 96.75 2951.57 95.4 2946.87 95.4C2942.27 95.4 2938.47 96.75 2935.47 99.45ZM2934.15 97.9511C2930.68 100.964 2928.97 104.981 2928.97 109.8C2928.97 114.535 2930.69 118.496 2934.15 121.499C2937.57 124.567 2941.86 126.05 2946.87 126.05C2951.97 126.05 2956.28 124.579 2959.61 121.488C2963.06 118.487 2964.77 114.529 2964.77 109.8C2964.77 104.987 2963.07 100.974 2959.61 97.962C2956.28 94.8713 2951.97 93.4 2946.87 93.4C2941.86 93.4 2937.57 94.8826 2934.15 97.9511ZM2928.81 13H2965.09L2959.37 86H2934.52L2928.81 13Z" fill="#014EFF"/>
<path fill-rule="evenodd" clip-rule="evenodd" d="M2860 82.9508H2885.95C2885.68 83.6306 2885.39 84.2972 2885.07 84.9508C2884.31 86.5086 2883.4 87.9919 2882.35 89.4008C2880.95 91.4008 2879.25 93.1508 2877.25 94.6508C2875.25 96.0508 2872.9 97.1508 2870.2 97.9508C2867.5 98.6508 2864.4 99.0008 2860.9 99.0008C2855.1 99.0008 2850 97.7508 2845.6 95.2508C2841.2 92.7508 2837.75 89.1508 2835.25 84.4508C2832.75 79.6508 2831.5 74.0008 2831.5 67.5008C2831.5 60.9008 2832.8 55.3508 2835.4 50.8508C2838.1 46.3508 2841.7 42.9508 2846.2 40.6508C2850.7 38.3508 2855.6 37.2008 2860.9 37.2008C2866.5 37.2008 2871.05 38.5008 2874.55 41.1008C2878.05 43.7008 2880.85 46.9008 2882.95 50.7008L2909.5 37.9508C2909.11 37.3935 2908.72 36.8434 2908.31 36.3003C2905.18 32.0685 2901.57 28.2686 2897.5 24.9008C2892.9 21.0008 2887.55 17.9508 2881.45 15.7508C2875.45 13.4508 2868.6 12.3008 2860.9 12.3008C2852.4 12.3008 2844.5 13.6008 2837.2 16.2008C2829.9 18.7008 2823.55 22.4008 2818.15 27.3008C2812.75 32.1008 2808.55 37.9008 2805.55 44.7008C2802.55 51.5008 2801.05 59.1008 2801.05 67.5008C2801.05 75.9008 2802.5 83.6008 2805.4 90.6008C2808.3 97.5008 2812.35 103.451 2817.55 108.451C2822.85 113.351 2829.05 117.151 2836.15 119.851C2843.35 122.551 2851.2 123.901 2859.7 123.901C2868.9 123.901 2877.05 122.301 2884.15 119.101C2891.25 115.801 2897.15 111.301 2901.85 105.601C2906.55 99.9008 2910 93.2508 2912.2 85.6508C2914.4 78.0508 2915.15 69.9508 2914.45 61.3508H2860V82.9508ZM2816.81 25.813C2811.19 30.8077 2806.83 36.8421 2803.72 43.8935C2800.59 50.979 2799.05 58.859 2799.05 67.5008C2799.05 76.1349 2800.54 84.0985 2803.55 91.3663L2803.55 91.3757C2806.56 98.5172 2810.76 104.697 2816.16 109.892L2816.18 109.906L2816.19 109.919C2821.69 115.002 2828.11 118.934 2835.44 121.72L2835.45 121.723C2842.89 124.516 2850.98 125.901 2859.7 125.901C2869.13 125.901 2877.57 124.26 2884.97 120.924L2884.98 120.919L2884.99 120.914C2892.35 117.496 2898.49 112.817 2903.39 106.873C2908.28 100.948 2911.85 94.0501 2914.12 86.2069C2916.39 78.3536 2917.16 70.0084 2916.44 61.1885L2916.29 59.3508H2858V84.9508H2882.82C2882.22 86.0768 2881.53 87.1599 2880.75 88.2008L2880.73 88.227L2880.71 88.2539C2879.44 90.0673 2877.9 91.6586 2876.08 93.0302C2874.29 94.2755 2872.16 95.28 2869.66 96.0235C2867.17 96.6661 2864.25 97.0008 2860.9 97.0008C2855.39 97.0008 2850.64 95.8171 2846.59 93.5119C2842.53 91.2102 2839.35 87.8975 2837.02 83.5169C2834.7 79.0562 2833.5 73.7386 2833.5 67.5008C2833.5 61.1666 2834.74 55.9881 2837.12 51.8663C2839.64 47.6811 2842.96 44.5523 2847.11 42.4317C2851.31 40.2827 2855.9 39.2008 2860.9 39.2008C2866.19 39.2008 2870.29 40.4271 2873.36 42.7063C2876.63 45.1366 2879.24 48.1194 2881.2 51.6682L2882.11 53.3213L2912.48 38.7381L2911.14 36.8106C2907.64 31.7628 2903.52 27.2796 2898.78 23.3645C2893.99 19.3081 2888.44 16.1486 2882.15 13.8762C2875.88 11.4779 2868.79 10.3008 2860.9 10.3008C2852.2 10.3008 2844.07 11.6316 2836.54 14.3128C2829 16.8946 2822.42 20.7255 2816.81 25.813Z" fill="#014EFF"/>
<path fill-rule="evenodd" clip-rule="evenodd" d="M2755.57 12.9998H2787.47V129.521L2717.12 70.871V122H2685.22V5.47852L2755.57 64.1286V12.9998ZM2757.57 68.3998L2687.22 9.74976V120H2715.12V66.5998L2785.47 125.25V14.9998H2757.57V68.3998Z" fill="#014EFF"/>
<path fill-rule="evenodd" clip-rule="evenodd" d="M2635.95 15V120H2665.65V15H2635.95ZM2633.95 13H2667.65V122H2633.95V13Z" fill="#014EFF"/>
<path fill-rule="evenodd" clip-rule="evenodd" d="M2539.27 15V120H2568.37V85.2H2578.12C2587.72 85.2 2595.62 83.8 2601.82 81C2608.12 78.2 2612.77 74.15 2615.77 68.85C2618.87 63.55 2620.42 57.3 2620.42 50.1C2620.42 42.8 2618.87 36.55 2615.77 31.35C2612.77 26.15 2608.12 22.15 2601.82 19.35C2595.62 16.45 2587.72 15 2578.12 15H2539.27ZM2568.37 61.8H2578.12C2582.72 61.8 2586.27 60.8 2588.77 58.8C2591.27 56.8 2592.52 53.9 2592.52 50.1C2592.52 46.4 2591.27 43.55 2588.77 41.55C2586.27 39.55 2582.72 38.55 2578.12 38.55H2568.37V61.8ZM2570.37 40.55V59.8H2578.12C2582.46 59.8 2585.51 58.8537 2587.53 57.2383C2589.46 55.6904 2590.52 53.4191 2590.52 50.1C2590.52 46.9012 2589.47 44.6704 2587.53 43.1117C2585.51 41.4963 2582.46 40.55 2578.12 40.55H2570.37ZM2537.27 13V122H2570.37V87.2H2578.12C2587.9 87.2 2596.11 85.7773 2602.65 82.8227C2609.28 79.8747 2614.27 75.5591 2617.51 69.8464C2620.81 64.1937 2622.42 57.5872 2622.42 50.1C2622.42 42.5175 2620.81 35.9004 2617.5 30.3341C2614.26 24.7285 2609.27 20.4729 2602.66 17.5308C2596.11 14.4724 2587.9 13 2578.12 13H2537.27Z" fill="#014EFF"/>
<path fill-rule="evenodd" clip-rule="evenodd" d="M2442.59 15V120H2471.69V85.2H2481.44C2491.04 85.2 2498.94 83.8 2505.14 81C2511.44 78.2 2516.09 74.15 2519.09 68.85C2522.19 63.55 2523.74 57.3 2523.74 50.1C2523.74 42.8 2522.19 36.55 2519.09 31.35C2516.09 26.15 2511.44 22.15 2505.14 19.35C2498.94 16.45 2491.04 15 2481.44 15H2442.59ZM2471.69 61.8H2481.44C2486.04 61.8 2489.59 60.8 2492.09 58.8C2494.59 56.8 2495.84 53.9 2495.84 50.1C2495.84 46.4 2494.59 43.55 2492.09 41.55C2489.59 39.55 2486.04 38.55 2481.44 38.55H2471.69V61.8ZM2473.69 40.55V59.8H2481.44C2485.78 59.8 2488.83 58.8537 2490.85 57.2383C2492.78 55.6904 2493.84 53.4191 2493.84 50.1C2493.84 46.9012 2492.79 44.6704 2490.85 43.1117C2488.83 41.4963 2485.78 40.55 2481.44 40.55H2473.69ZM2440.59 13V122H2473.69V87.2H2481.44C2491.22 87.2 2499.42 85.7785 2505.96 82.8263C2512.59 79.8782 2517.59 75.5615 2520.83 69.8464C2524.13 64.1937 2525.74 57.5872 2525.74 50.1C2525.74 42.5191 2524.13 35.9031 2520.82 30.3375C2517.58 24.7298 2512.59 20.473 2505.97 17.5302C2499.43 14.4722 2491.22 13 2481.44 13H2440.59Z" fill="#014EFF"/>
<path fill-rule="evenodd" clip-rule="evenodd" d="M2346.13 82.5008C2343.93 78.1008 2342.83 73.1008 2342.83 67.5008C2342.83 61.8008 2343.93 56.8008 2346.13 52.5008C2348.33 48.2008 2351.43 44.8508 2355.43 42.4508C2359.43 39.9508 2364.13 38.7008 2369.53 38.7008C2375.23 38.7008 2380.03 39.9508 2383.93 42.4508C2387.93 44.8508 2390.98 48.2008 2393.08 52.5008C2395.18 56.8008 2396.23 61.8008 2396.23 67.5008C2396.23 73.1008 2395.13 78.1008 2392.93 82.5008C2390.73 86.8008 2387.63 90.2008 2383.63 92.7008C2379.73 95.1008 2375.03 96.3008 2369.53 96.3008C2364.13 96.3008 2359.43 95.1008 2355.43 92.7008C2351.43 90.2008 2348.33 86.8008 2346.13 82.5008ZM2347.92 81.5983C2349.95 85.5748 2352.8 88.6941 2356.48 90.9951C2360.12 93.1747 2364.44 94.3008 2369.53 94.3008C2374.73 94.3008 2379.05 93.1695 2382.58 91.0027C2386.26 88.701 2389.11 85.5791 2391.15 81.5984C2393.19 77.5142 2394.23 72.83 2394.23 67.5008C2394.23 62.0474 2393.23 57.3577 2391.29 53.3785C2389.35 49.4164 2386.56 46.3614 2382.9 44.1658L2382.88 44.1505L2382.85 44.1345C2379.34 41.8841 2374.94 40.7008 2369.53 40.7008C2364.45 40.7008 2360.13 41.8729 2356.49 44.1468L2356.48 44.1564L2356.46 44.1658C2352.79 46.3663 2349.95 49.4323 2347.91 53.4117C2345.88 57.3832 2344.83 62.0607 2344.83 67.5008C2344.83 72.83 2345.88 77.5142 2347.92 81.5983ZM2316.43 45.0008C2313.53 51.7008 2312.08 59.2008 2312.08 67.5008C2312.08 75.7008 2313.48 83.2508 2316.28 90.1508C2319.08 97.0508 2323.03 103.051 2328.13 108.151C2333.33 113.151 2339.43 117.051 2346.43 119.851C2353.43 122.551 2361.13 123.901 2369.53 123.901C2377.93 123.901 2385.63 122.551 2392.63 119.851C2399.73 117.051 2405.83 113.151 2410.93 108.151C2416.03 103.051 2419.98 97.0508 2422.78 90.1508C2425.58 83.2508 2426.98 75.7008 2426.98 67.5008C2426.98 59.2008 2425.53 51.7008 2422.63 45.0008C2419.83 38.2008 2415.83 32.4008 2410.63 27.6008C2405.43 22.7008 2399.33 18.9508 2392.33 16.3508C2385.43 13.6508 2377.83 12.3008 2369.53 12.3008C2361.43 12.3008 2353.88 13.6508 2346.88 16.3508C2339.98 18.9508 2333.93 22.7008 2328.73 27.6008C2323.53 32.4008 2319.43 38.2008 2316.43 45.0008ZM2327.37 26.1397C2321.96 31.1334 2317.71 37.1595 2314.6 44.1935L2314.6 44.2063C2311.58 51.1892 2310.08 58.9648 2310.08 67.5008C2310.08 75.9324 2311.52 83.7409 2314.43 90.9028C2317.33 98.0425 2321.42 104.27 2326.72 109.565L2326.73 109.579L2326.75 109.592C2332.14 114.779 2338.46 118.816 2345.69 121.708L2345.7 121.712L2345.71 121.717C2352.97 124.515 2360.92 125.901 2369.53 125.901C2378.15 125.901 2386.1 124.515 2393.35 121.717L2393.36 121.714L2393.37 121.711C2400.7 118.82 2407.03 114.779 2412.33 109.579L2412.34 109.572L2412.35 109.565C2417.64 104.27 2421.74 98.0425 2424.64 90.9028C2427.54 83.7409 2428.98 75.9324 2428.98 67.5008C2428.98 58.9716 2427.49 51.2016 2424.48 44.223C2421.57 37.1757 2417.41 31.1395 2412 26.1398C2406.6 21.0544 2400.28 17.1696 2393.05 14.4819C2385.89 11.685 2378.05 10.3008 2369.53 10.3008C2361.21 10.3008 2353.42 11.6885 2346.17 14.482C2339.04 17.1712 2332.76 21.0569 2327.37 26.1397Z" fill="#014EFF"/>
<path fill-rule="evenodd" clip-rule="evenodd" d="M2226.04 78.15V120H2196.94V15H2226.04V52.2H2267.44V15H2296.54V120H2267.44V78.15H2226.04ZM2228.04 80.15V122H2194.94V13H2228.04V50.2H2265.44V13H2298.54V122H2265.44V80.15H2228.04Z" fill="#014EFF"/>
<path fill-rule="evenodd" clip-rule="evenodd" d="M2114.5 83.3304C2114.15 82.7665 2113.81 82.19 2113.47 81.6008L2093.67 96.0008C2095.97 101.201 2099.37 105.951 2103.87 110.251C2108.37 114.451 2113.67 117.751 2119.77 120.151C2125.97 122.651 2132.67 123.901 2139.87 123.901C2144.97 123.901 2149.97 123.151 2154.87 121.651C2159.77 120.251 2164.12 118.151 2167.92 115.351C2171.82 112.451 2174.87 108.851 2177.07 104.551C2179.37 100.251 2180.52 95.3008 2180.52 89.7008C2180.52 85.5008 2179.87 81.7008 2178.57 78.3008C2177.27 74.9008 2175.42 71.9008 2173.02 69.3008C2170.62 66.6008 2167.77 64.3008 2164.47 62.4008C2161.27 60.4008 2157.72 58.7008 2153.82 57.3008C2149.32 55.7008 2145.32 54.2508 2141.82 52.9508C2138.42 51.5508 2135.72 50.1008 2133.72 48.6008C2131.82 47.0008 2130.87 45.0508 2130.87 42.7508C2130.87 40.7508 2131.72 39.1508 2133.42 37.9508C2135.12 36.7508 2137.42 36.1508 2140.32 36.1508C2142.62 36.1508 2144.87 36.6008 2147.07 37.5008C2149.27 38.4008 2151.32 39.7008 2153.22 41.4008C2155.22 43.0008 2156.97 45.0508 2158.47 47.5508L2180.37 35.4011C2180.15 34.9781 2179.92 34.5555 2179.67 34.1338C2179.58 33.9756 2179.49 33.8175 2179.39 33.6594C2177.58 30.6547 2175.21 27.6852 2172.27 24.7508C2168.77 21.1508 2164.32 18.2008 2158.92 15.9008C2153.52 13.5008 2147.12 12.3008 2139.72 12.3008C2132.62 12.3008 2126.17 13.5008 2120.37 15.9008C2114.57 18.3008 2109.92 21.8008 2106.42 26.4008C2102.92 30.9008 2101.17 36.4508 2101.17 43.0508C2101.17 48.2508 2102.12 52.7508 2104.02 56.5508C2106.02 60.3508 2108.47 63.5508 2111.37 66.1508C2114.37 68.7508 2117.47 70.9008 2120.67 72.6008C2123.87 74.2008 2126.77 75.5008 2129.37 76.5008C2134.67 78.5008 2138.77 80.2008 2141.67 81.6008C2144.67 83.0008 2146.77 84.4008 2147.97 85.8008C2149.17 87.1008 2149.77 88.7508 2149.77 90.7508C2149.77 93.5508 2148.72 95.7008 2146.62 97.2008C2144.52 98.6008 2141.87 99.3008 2138.67 99.3008C2135.37 99.3008 2132.17 98.6008 2129.07 97.2008C2125.97 95.8008 2123.12 93.8008 2120.52 91.2008C2118.34 88.9307 2116.33 86.3073 2114.5 83.3304ZM2121.95 89.8C2119.49 87.2381 2117.24 84.1812 2115.21 80.6136L2114.11 78.6665L2091.19 95.3331L2091.85 96.8098C2094.26 102.271 2097.82 107.233 2102.49 111.697L2102.5 111.705L2102.51 111.713C2107.2 116.094 2112.72 119.523 2119.03 122.009C2125.49 124.61 2132.44 125.901 2139.87 125.901C2145.17 125.901 2150.36 125.123 2155.44 123.569C2160.55 122.108 2165.11 119.91 2169.11 116.961L2169.12 116.956C2173.26 113.878 2176.51 110.046 2178.85 105.479C2181.32 100.852 2182.52 95.5743 2182.52 89.7008C2182.52 85.2937 2181.84 81.2468 2180.44 77.5865C2179.06 73.9619 2177.08 70.7471 2174.51 67.958C2171.97 65.1036 2168.96 62.6804 2165.5 60.6857C2162.18 58.6114 2158.51 56.8576 2154.5 55.4184L2154.49 55.4164C2150.02 53.8237 2146.04 52.3811 2142.55 51.0882C2139.29 49.7412 2136.78 48.383 2134.97 47.0354C2133.51 45.7898 2132.87 44.3936 2132.87 42.7508C2132.87 41.4312 2133.38 40.4279 2134.58 39.5847C2135.83 38.7001 2137.68 38.1508 2140.32 38.1508C2142.36 38.1508 2144.35 38.5469 2146.32 39.3519C2148.29 40.1594 2150.15 41.3324 2151.89 42.8913L2151.93 42.9281L2151.98 42.9625C2153.77 44.395 2155.37 46.2557 2156.76 48.5798L2157.75 50.2376L2183.06 36.1995L2182.14 34.4673C2180.13 30.6603 2177.31 26.9556 2173.7 23.3466C2169.99 19.5349 2165.32 16.4507 2159.72 14.0669C2154.01 11.5327 2147.33 10.3008 2139.72 10.3008C2132.4 10.3008 2125.68 11.5401 2119.61 14.0528C2113.52 16.5746 2108.57 20.2791 2104.84 25.1804C2101.03 30.0838 2099.17 36.0828 2099.17 43.0508C2099.17 48.4929 2100.17 53.3122 2102.24 57.4452L2102.25 57.4638L2102.25 57.4823C2104.35 61.471 2106.95 64.8659 2110.04 67.6399L2110.05 67.6511L2110.06 67.6622C2113.17 70.3515 2116.39 72.59 2119.74 74.367L2119.76 74.3786L2119.78 74.3896C2123.02 76.0108 2125.98 77.339 2128.66 78.3675L2128.67 78.372C2133.95 80.3642 2137.98 82.0399 2140.81 83.4019L2140.82 83.4076L2140.83 83.4131C2143.74 84.7736 2145.53 86.0276 2146.46 87.1024L2146.48 87.1303L2146.51 87.1573C2147.32 88.0391 2147.77 89.1829 2147.77 90.7508C2147.77 92.9566 2147 94.4675 2145.49 95.5549C2143.8 96.6725 2141.57 97.3008 2138.67 97.3008C2135.67 97.3008 2132.75 96.6649 2129.9 95.3781C2127.04 94.0876 2124.39 92.2365 2121.95 89.8Z" fill="#014EFF"/>
<path fill-rule="evenodd" clip-rule="evenodd" d="M2010.69 15L1992.24 51.75L1973.64 15H1940.04L1977.39 78.3V120H2007.09V78L2044.29 15H2010.69ZM2009.09 78.5464L2047.79 13H2009.45L1992.23 47.3068L1974.87 13H1936.53L1975.39 78.8461V122H2009.09V78.5464Z" fill="#014EFF"/>
<path fill-rule="evenodd" clip-rule="evenodd" d="M1859.15 15V120H1888.25V85.2H1898C1907.6 85.2 1915.5 83.8 1921.7 81C1928 78.2 1932.65 74.15 1935.65 68.85C1938.75 63.55 1940.3 57.3 1940.3 50.1C1940.3 42.8 1938.75 36.55 1935.65 31.35C1932.65 26.15 1928 22.15 1921.7 19.35C1915.5 16.45 1907.6 15 1898 15H1859.15ZM1888.25 61.8H1898C1902.6 61.8 1906.15 60.8 1908.65 58.8C1911.15 56.8 1912.4 53.9 1912.4 50.1C1912.4 46.4 1911.15 43.55 1908.65 41.55C1906.15 39.55 1902.6 38.55 1898 38.55H1888.25V61.8ZM1890.25 40.55V59.8H1898C1902.34 59.8 1905.38 58.8537 1907.4 57.2383C1909.33 55.6904 1910.4 53.4191 1910.4 50.1C1910.4 46.9012 1909.35 44.6704 1907.4 43.1117C1905.38 41.4963 1902.34 40.55 1898 40.55H1890.25ZM1857.15 13V122H1890.25V87.2H1898C1907.77 87.2 1915.97 85.7781 1922.51 82.8253C1929.15 79.8772 1934.14 75.5608 1937.38 69.8464C1940.68 64.1937 1942.3 57.5872 1942.3 50.1C1942.3 42.5198 1940.69 35.9044 1937.37 30.3392C1934.13 24.7307 1929.14 20.4733 1922.53 17.5302C1915.98 14.4722 1907.77 13 1898 13H1857.15Z" fill="#014EFF"/>
<path fill-rule="evenodd" clip-rule="evenodd" d="M1762.47 15V120H1791.57V85.2H1801.32C1810.92 85.2 1818.82 83.8 1825.02 81C1831.32 78.2 1835.97 74.15 1838.97 68.85C1842.07 63.55 1843.62 57.3 1843.62 50.1C1843.62 42.8 1842.07 36.55 1838.97 31.35C1835.97 26.15 1831.32 22.15 1825.02 19.35C1818.82 16.45 1810.92 15 1801.32 15H1762.47ZM1791.57 61.8H1801.32C1805.92 61.8 1809.47 60.8 1811.97 58.8C1814.47 56.8 1815.72 53.9 1815.72 50.1C1815.72 46.4 1814.47 43.55 1811.97 41.55C1809.47 39.55 1805.92 38.55 1801.32 38.55H1791.57V61.8ZM1793.57 40.55V59.8H1801.32C1805.66 59.8 1808.7 58.8537 1810.72 57.2383C1812.65 55.6904 1813.72 53.4191 1813.72 50.1C1813.72 46.9012 1812.67 44.6704 1810.72 43.1117C1808.7 41.4963 1805.66 40.55 1801.32 40.55H1793.57ZM1760.47 13V122H1793.57V87.2H1801.32C1811.09 87.2 1819.29 85.7781 1825.84 82.8253C1832.47 79.8772 1837.46 75.5608 1840.7 69.8464C1844 64.1937 1845.62 57.5872 1845.62 50.1C1845.62 42.5198 1844.01 35.9044 1840.69 30.3392C1837.45 24.7307 1832.46 20.4733 1825.85 17.5302C1819.3 14.4722 1811.09 13 1801.32 13H1760.47Z" fill="#014EFF"/>
<path fill-rule="evenodd" clip-rule="evenodd" d="M1684.52 81.6H1705.27L1694.84 58.05L1684.52 81.6ZM1687.58 79.6H1702.2L1694.85 63.0115L1687.58 79.6ZM1679.27 103.05L1670.69 120H1637.69L1694.84 7.95001L1752.14 120H1719.14L1710.28 103.05H1679.27ZM1680.5 105.05L1671.92 122H1634.43L1694.84 3.55273L1755.41 122H1717.93L1709.07 105.05H1680.5Z" fill="#014EFF"/>
<path fill-rule="evenodd" clip-rule="evenodd" d="M1556.9 78.15V120H1527.8V15H1556.9V52.2H1598.3V15H1627.4V120H1598.3V78.15H1556.9ZM1558.9 80.15V122H1525.8V13H1558.9V50.2H1596.3V13H1629.4V122H1596.3V80.15H1558.9Z" fill="#014EFF"/>
<path d="M4447.97 15H4479.92L4474.52 84H4453.37L4447.97 15ZM4447.97 109.8C4447.97 105.5 4449.47 102.05 4452.47 99.45C4455.47 96.75 4459.27 95.4 4463.87 95.4C4468.57 95.4 4472.37 96.75 4475.27 99.45C4478.27 102.05 4479.77 105.5 4479.77 109.8C4479.77 114 4478.27 117.4 4475.27 120C4472.37 122.7 4468.57 124.05 4463.87 124.05C4459.27 124.05 4455.47 122.7 4452.47 120C4449.47 117.4 4447.97 114 4447.97 109.8Z" fill="#014EFF"/>
<path d="M4377 82.9488V61.3488H4431.45C4432.15 69.9488 4431.4 78.0488 4429.2 85.6488C4427 93.2488 4423.55 99.8988 4418.85 105.599C4414.15 111.299 4408.25 115.799 4401.15 119.099C4394.05 122.299 4385.9 123.899 4376.7 123.899C4368.2 123.899 4360.35 122.549 4353.15 119.849C4346.05 117.149 4339.85 113.349 4334.55 108.449C4329.35 103.449 4325.3 97.4988 4322.4 90.5988C4319.5 83.5988 4318.05 75.8988 4318.05 67.4988C4318.05 59.0988 4319.55 51.4988 4322.55 44.6988C4325.55 37.8988 4329.75 32.0988 4335.15 27.2988C4340.55 22.3988 4346.9 18.6988 4354.2 16.1988C4361.5 13.5988 4369.4 12.2988 4377.9 12.2988C4385.6 12.2988 4392.45 13.4488 4398.45 15.7488C4404.55 17.9488 4409.9 20.9988 4414.5 24.8988C4419.1 28.6988 4423.1 33.0488 4426.5 37.9488L4399.95 50.6988C4397.85 46.8988 4395.05 43.6988 4391.55 41.0988C4388.05 38.4988 4383.5 37.1988 4377.9 37.1988C4372.6 37.1988 4367.7 38.3488 4363.2 40.6488C4358.7 42.9488 4355.1 46.3488 4352.4 50.8488C4349.8 55.3488 4348.5 60.8988 4348.5 67.4988C4348.5 73.9988 4349.75 79.6488 4352.25 84.4488C4354.75 89.1488 4358.2 92.7488 4362.6 95.2488C4367 97.7488 4372.1 98.9988 4377.9 98.9988C4381.4 98.9988 4384.5 98.6488 4387.2 97.9488C4389.9 97.1488 4392.25 96.0488 4394.25 94.6488C4396.25 93.1488 4397.95 91.3988 4399.35 89.3988C4400.85 87.3988 4402.05 85.2488 4402.95 82.9488H4377Z" fill="#014EFF"/>
<path d="M4274.57 15H4302.47V125.25L4232.12 66.6V120H4204.22V9.75L4274.57 68.4V15Z" fill="#014EFF"/>
<path d="M4152.95 15H4182.65V120H4152.95V15Z" fill="#014EFF"/>
<path d="M4056.27 15H4085.37V120H4056.27V15ZM4074.87 38.55V15H4095.12C4104.72 15 4112.62 16.45 4118.82 19.35C4125.12 22.15 4129.77 26.15 4132.77 31.35C4135.87 36.55 4137.42 42.8 4137.42 50.1C4137.42 57.3 4135.87 63.55 4132.77 68.85C4129.77 74.15 4125.12 78.2 4118.82 81C4112.62 83.8 4104.72 85.2 4095.12 85.2H4074.87V61.8H4095.12C4099.72 61.8 4103.27 60.8 4105.77 58.8C4108.27 56.8 4109.52 53.9 4109.52 50.1C4109.52 46.4 4108.27 43.55 4105.77 41.55C4103.27 39.55 4099.72 38.55 4095.12 38.55H4074.87Z" fill="#014EFF"/>
<path d="M3959.59 15H3988.69V120H3959.59V15ZM3978.19 38.55V15H3998.44C4008.04 15 4015.94 16.45 4022.14 19.35C4028.44 22.15 4033.09 26.15 4036.09 31.35C4039.19 36.55 4040.74 42.8 4040.74 50.1C4040.74 57.3 4039.19 63.55 4036.09 68.85C4033.09 74.15 4028.44 78.2 4022.14 81C4015.94 83.8 4008.04 85.2 3998.44 85.2H3978.19V61.8H3998.44C4003.04 61.8 4006.59 60.8 4009.09 58.8C4011.59 56.8 4012.84 53.9 4012.84 50.1C4012.84 46.4 4011.59 43.55 4009.09 41.55C4006.59 39.55 4003.04 38.55 3998.44 38.55H3978.19Z" fill="#014EFF"/>
<path d="M3859.83 67.4988C3859.83 73.0988 3860.93 78.0988 3863.13 82.4988C3865.33 86.7988 3868.43 90.1988 3872.43 92.6988C3876.43 95.0988 3881.13 96.2988 3886.53 96.2988C3892.03 96.2988 3896.73 95.0988 3900.63 92.6988C3904.63 90.1988 3907.73 86.7988 3909.93 82.4988C3912.13 78.0988 3913.23 73.0988 3913.23 67.4988C3913.23 61.7988 3912.18 56.7988 3910.08 52.4988C3907.98 48.1988 3904.93 44.8488 3900.93 42.4488C3897.03 39.9488 3892.23 38.6988 3886.53 38.6988C3881.13 38.6988 3876.43 39.9488 3872.43 42.4488C3868.43 44.8488 3865.33 48.1988 3863.13 52.4988C3860.93 56.7988 3859.83 61.7988 3859.83 67.4988ZM3829.08 67.4988C3829.08 59.1988 3830.53 51.6988 3833.43 44.9988C3836.43 38.1988 3840.53 32.3988 3845.73 27.5988C3850.93 22.6988 3856.98 18.9488 3863.88 16.3488C3870.88 13.6488 3878.43 12.2988 3886.53 12.2988C3894.83 12.2988 3902.43 13.6488 3909.33 16.3488C3916.33 18.9488 3922.43 22.6988 3927.63 27.5988C3932.83 32.3988 3936.83 38.1988 3939.63 44.9988C3942.53 51.6988 3943.98 59.1988 3943.98 67.4988C3943.98 75.6988 3942.58 83.2488 3939.78 90.1488C3936.98 97.0488 3933.03 103.049 3927.93 108.149C3922.83 113.149 3916.73 117.049 3909.63 119.849C3902.63 122.549 3894.93 123.899 3886.53 123.899C3878.13 123.899 3870.43 122.549 3863.43 119.849C3856.43 117.049 3850.33 113.149 3845.13 108.149C3840.03 103.049 3836.08 97.0488 3833.28 90.1488C3830.48 83.2488 3829.08 75.6988 3829.08 67.4988Z" fill="#014EFF"/>
<path d="M3720.99 78.15V52.2H3802.74V78.15H3720.99ZM3784.44 15H3813.54V120H3784.44V15ZM3713.94 15H3743.04V120H3713.94V15Z" fill="#014EFF"/>
<path d="M3630.47 81.5988C3632.57 85.2988 3634.92 88.4988 3637.52 91.1988C3640.12 93.7988 3642.97 95.7988 3646.07 97.1988C3649.17 98.5988 3652.37 99.2988 3655.67 99.2988C3658.87 99.2988 3661.52 98.5988 3663.62 97.1988C3665.72 95.6988 3666.77 93.5488 3666.77 90.7488C3666.77 88.7488 3666.17 87.0988 3664.97 85.7988C3663.77 84.3988 3661.67 82.9988 3658.67 81.5988C3655.77 80.1988 3651.67 78.4988 3646.37 76.4988C3643.77 75.4988 3640.87 74.1988 3637.67 72.5988C3634.47 70.8988 3631.37 68.7488 3628.37 66.1488C3625.47 63.5488 3623.02 60.3488 3621.02 56.5488C3619.12 52.7488 3618.17 48.2488 3618.17 43.0488C3618.17 36.4488 3619.92 30.8988 3623.42 26.3988C3626.92 21.7988 3631.57 18.2988 3637.37 15.8988C3643.17 13.4988 3649.62 12.2988 3656.72 12.2988C3664.12 12.2988 3670.52 13.4988 3675.92 15.8988C3681.32 18.1988 3685.77 21.1488 3689.27 24.7488C3692.77 28.2488 3695.47 31.7988 3697.37 35.3988L3675.47 47.5488C3673.97 45.0488 3672.22 42.9988 3670.22 41.3988C3668.32 39.6988 3666.27 38.3988 3664.07 37.4988C3661.87 36.5988 3659.62 36.1488 3657.32 36.1488C3654.42 36.1488 3652.12 36.7488 3650.42 37.9488C3648.72 39.1488 3647.87 40.7488 3647.87 42.7488C3647.87 45.0488 3648.82 46.9988 3650.72 48.5988C3652.72 50.0988 3655.42 51.5488 3658.82 52.9488C3662.32 54.2488 3666.32 55.6988 3670.82 57.2988C3674.72 58.6988 3678.27 60.3988 3681.47 62.3988C3684.77 64.2988 3687.62 66.5988 3690.02 69.2988C3692.42 71.8988 3694.27 74.8988 3695.57 78.2988C3696.87 81.6988 3697.52 85.4988 3697.52 89.6988C3697.52 95.2988 3696.37 100.249 3694.07 104.549C3691.87 108.849 3688.82 112.449 3684.92 115.349C3681.12 118.149 3676.77 120.249 3671.87 121.649C3666.97 123.149 3661.97 123.899 3656.87 123.899C3649.67 123.899 3642.97 122.649 3636.77 120.149C3630.67 117.749 3625.37 114.449 3620.87 110.249C3616.37 105.949 3612.97 101.199 3610.67 95.9988L3630.47 81.5988Z" fill="#014EFF"/>
<path d="M3527.69 15H3561.29L3524.09 78V120H3494.39V78.3L3457.04 15H3490.64L3509.24 51.75L3527.69 15Z" fill="#014EFF"/>
<path d="M3376.15 15H3405.25V120H3376.15V15ZM3394.75 38.55V15H3415C3424.6 15 3432.5 16.45 3438.7 19.35C3445 22.15 3449.65 26.15 3452.65 31.35C3455.75 36.55 3457.3 42.8 3457.3 50.1C3457.3 57.3 3455.75 63.55 3452.65 68.85C3449.65 74.15 3445 78.2 3438.7 81C3432.5 83.8 3424.6 85.2 3415 85.2H3394.75V61.8H3415C3419.6 61.8 3423.15 60.8 3425.65 58.8C3428.15 56.8 3429.4 53.9 3429.4 50.1C3429.4 46.4 3428.15 43.55 3425.65 41.55C3423.15 39.55 3419.6 38.55 3415 38.55H3394.75Z" fill="#014EFF"/>
<path d="M3279.47 15H3308.57V120H3279.47V15ZM3298.07 38.55V15H3318.32C3327.92 15 3335.82 16.45 3342.02 19.35C3348.32 22.15 3352.97 26.15 3355.97 31.35C3359.07 36.55 3360.62 42.8 3360.62 50.1C3360.62 57.3 3359.07 63.55 3355.97 68.85C3352.97 74.15 3348.32 78.2 3342.02 81C3335.82 83.8 3327.92 85.2 3318.32 85.2H3298.07V61.8H3318.32C3322.92 61.8 3326.47 60.8 3328.97 58.8C3331.47 56.8 3332.72 53.9 3332.72 50.1C3332.72 46.4 3331.47 43.55 3328.97 41.55C3326.47 39.55 3322.92 38.55 3318.32 38.55H3298.07Z" fill="#014EFF"/>
<path d="M3184.39 103.049L3185.29 81.5992H3239.14L3239.89 103.049H3184.39ZM3211.84 58.0492L3198.04 89.5492L3199.84 95.9992L3187.69 119.999H3154.69L3211.84 7.94922L3269.14 119.999H3236.14L3224.14 97.0492L3225.79 89.5492L3211.84 58.0492Z" fill="#014EFF"/>
<path d="M3051.85 78.15V52.2H3133.6V78.15H3051.85ZM3115.3 15H3144.4V120H3115.3V15ZM3044.8 15H3073.9V120H3044.8V15Z" fill="#014EFF"/>
<path fill-rule="evenodd" clip-rule="evenodd" d="M5964.97 15L5970.37 84H5991.52L5996.92 15H5964.97ZM5969.47 99.45C5966.47 102.05 5964.97 105.5 5964.97 109.8C5964.97 114 5966.47 117.4 5969.47 120C5972.47 122.7 5976.27 124.05 5980.87 124.05C5985.57 124.05 5989.37 122.7 5992.27 120C5995.27 117.4 5996.77 114 5996.77 109.8C5996.77 105.5 5995.27 102.05 5992.27 99.45C5989.37 96.75 5985.57 95.4 5980.87 95.4C5976.27 95.4 5972.47 96.75 5969.47 99.45ZM5968.15 97.9511C5964.68 100.964 5962.97 104.981 5962.97 109.8C5962.97 114.535 5964.69 118.496 5968.15 121.499C5971.57 124.567 5975.86 126.05 5980.87 126.05C5985.97 126.05 5990.28 124.579 5993.61 121.488C5997.06 118.487 5998.77 114.529 5998.77 109.8C5998.77 104.987 5997.07 100.974 5993.61 97.962C5990.28 94.8713 5985.97 93.4 5980.87 93.4C5975.86 93.4 5971.57 94.8826 5968.15 97.9511ZM5962.81 13H5999.09L5993.37 86H5968.52L5962.81 13Z" fill="#014EFF"/>
<path fill-rule="evenodd" clip-rule="evenodd" d="M5894 82.9508H5919.95C5919.68 83.6306 5919.39 84.2972 5919.07 84.9508C5918.31 86.5086 5917.4 87.9919 5916.35 89.4008C5914.95 91.4008 5913.25 93.1508 5911.25 94.6508C5909.25 96.0508 5906.9 97.1508 5904.2 97.9508C5901.5 98.6508 5898.4 99.0008 5894.9 99.0008C5889.1 99.0008 5884 97.7508 5879.6 95.2508C5875.2 92.7508 5871.75 89.1508 5869.25 84.4508C5866.75 79.6508 5865.5 74.0008 5865.5 67.5008C5865.5 60.9008 5866.8 55.3508 5869.4 50.8508C5872.1 46.3508 5875.7 42.9508 5880.2 40.6508C5884.7 38.3508 5889.6 37.2008 5894.9 37.2008C5900.5 37.2008 5905.05 38.5008 5908.55 41.1008C5912.05 43.7008 5914.85 46.9008 5916.95 50.7008L5943.5 37.9508C5943.11 37.3935 5942.72 36.8434 5942.31 36.3003C5939.18 32.0685 5935.57 28.2686 5931.5 24.9008C5926.9 21.0008 5921.55 17.9508 5915.45 15.7508C5909.45 13.4508 5902.6 12.3008 5894.9 12.3008C5886.4 12.3008 5878.5 13.6008 5871.2 16.2008C5863.9 18.7008 5857.55 22.4008 5852.15 27.3008C5846.75 32.1008 5842.55 37.9008 5839.55 44.7008C5836.55 51.5008 5835.05 59.1008 5835.05 67.5008C5835.05 75.9008 5836.5 83.6008 5839.4 90.6008C5842.3 97.5008 5846.35 103.451 5851.55 108.451C5856.85 113.351 5863.05 117.151 5870.15 119.851C5877.35 122.551 5885.2 123.901 5893.7 123.901C5902.9 123.901 5911.05 122.301 5918.15 119.101C5925.25 115.801 5931.15 111.301 5935.85 105.601C5940.55 99.9008 5944 93.2508 5946.2 85.6508C5948.4 78.0508 5949.15 69.9508 5948.45 61.3508H5894V82.9508ZM5850.81 25.813C5845.19 30.8077 5840.83 36.8421 5837.72 43.8935C5834.59 50.979 5833.05 58.859 5833.05 67.5008C5833.05 76.1349 5834.54 84.0985 5837.55 91.3663L5837.55 91.3757C5840.55 98.5172 5844.76 104.697 5850.16 109.892L5850.17 109.906L5850.19 109.919C5855.69 115.002 5862.11 118.934 5869.44 121.72L5869.44 121.723C5876.89 124.516 5884.98 125.901 5893.7 125.901C5903.13 125.901 5911.57 124.26 5918.97 120.924L5918.98 120.919L5918.99 120.914C5926.34 117.496 5932.49 112.817 5937.39 106.873C5942.28 100.948 5945.85 94.0501 5948.12 86.2069C5950.39 78.3536 5951.16 70.0084 5950.44 61.1885L5950.29 59.3508H5892V84.9508H5916.82C5916.22 86.0768 5915.53 87.1599 5914.75 88.2008L5914.73 88.227L5914.71 88.2539C5913.44 90.0673 5911.9 91.6586 5910.07 93.0302C5908.29 94.2755 5906.16 95.28 5903.66 96.0235C5901.17 96.6661 5898.25 97.0008 5894.9 97.0008C5889.39 97.0008 5884.64 95.8171 5880.58 93.5119C5876.53 91.2102 5873.35 87.8975 5871.02 83.5169C5868.69 79.0562 5867.5 73.7386 5867.5 67.5008C5867.5 61.1666 5868.74 55.9881 5871.12 51.8663C5873.63 47.6811 5876.96 44.5523 5881.11 42.4317C5885.31 40.2827 5889.9 39.2008 5894.9 39.2008C5900.19 39.2008 5904.29 40.4271 5907.35 42.7063C5910.63 45.1366 5913.24 48.1194 5915.2 51.6682L5916.11 53.3213L5946.48 38.7381L5945.14 36.8106C5941.64 31.7628 5937.52 27.2796 5932.78 23.3645C5927.99 19.3081 5922.44 16.1486 5916.14 13.8762C5909.88 11.4779 5902.79 10.3008 5894.9 10.3008C5886.19 10.3008 5878.07 11.6316 5870.54 14.3128C5863 16.8946 5856.42 20.7255 5850.81 25.813Z" fill="#014EFF"/>
<path fill-rule="evenodd" clip-rule="evenodd" d="M5789.57 12.9998H5821.47V129.521L5751.12 70.871V122H5719.22V5.47852L5789.57 64.1286V12.9998ZM5791.57 68.3998L5721.22 9.74976V120H5749.12V66.5998L5819.47 125.25V14.9998H5791.57V68.3998Z" fill="#014EFF"/>
<path fill-rule="evenodd" clip-rule="evenodd" d="M5669.95 15V120H5699.65V15H5669.95ZM5667.95 13H5701.65V122H5667.95V13Z" fill="#014EFF"/>
<path fill-rule="evenodd" clip-rule="evenodd" d="M5573.27 15V120H5602.37V85.2H5612.12C5621.72 85.2 5629.62 83.8 5635.82 81C5642.12 78.2 5646.77 74.15 5649.77 68.85C5652.87 63.55 5654.42 57.3 5654.42 50.1C5654.42 42.8 5652.87 36.55 5649.77 31.35C5646.77 26.15 5642.12 22.15 5635.82 19.35C5629.62 16.45 5621.72 15 5612.12 15H5573.27ZM5602.37 61.8H5612.12C5616.72 61.8 5620.27 60.8 5622.77 58.8C5625.27 56.8 5626.52 53.9 5626.52 50.1C5626.52 46.4 5625.27 43.55 5622.77 41.55C5620.27 39.55 5616.72 38.55 5612.12 38.55H5602.37V61.8ZM5604.37 40.55V59.8H5612.12C5616.46 59.8 5619.5 58.8537 5621.52 57.2383C5623.46 55.6904 5624.52 53.4191 5624.52 50.1C5624.52 46.9012 5623.47 44.6704 5621.52 43.1117C5619.5 41.4963 5616.46 40.55 5612.12 40.55H5604.37ZM5571.27 13V122H5604.37V87.2H5612.12C5621.9 87.2 5630.1 85.7773 5636.65 82.8227C5643.27 79.8747 5648.27 75.5591 5651.51 69.8464C5654.81 64.1937 5656.42 57.5872 5656.42 50.1C5656.42 42.5175 5654.81 35.9004 5651.5 30.3341C5648.26 24.7285 5643.27 20.4729 5636.65 17.5308C5630.11 14.4724 5621.9 13 5612.12 13H5571.27Z" fill="#014EFF"/>
<path fill-rule="evenodd" clip-rule="evenodd" d="M5476.59 15V120H5505.69V85.2H5515.44C5525.04 85.2 5532.94 83.8 5539.14 81C5545.44 78.2 5550.09 74.15 5553.09 68.85C5556.19 63.55 5557.74 57.3 5557.74 50.1C5557.74 42.8 5556.19 36.55 5553.09 31.35C5550.09 26.15 5545.44 22.15 5539.14 19.35C5532.94 16.45 5525.04 15 5515.44 15H5476.59ZM5505.69 61.8H5515.44C5520.04 61.8 5523.59 60.8 5526.09 58.8C5528.59 56.8 5529.84 53.9 5529.84 50.1C5529.84 46.4 5528.59 43.55 5526.09 41.55C5523.59 39.55 5520.04 38.55 5515.44 38.55H5505.69V61.8ZM5507.69 40.55V59.8H5515.44C5519.78 59.8 5522.83 58.8537 5524.84 57.2383C5526.78 55.6904 5527.84 53.4191 5527.84 50.1C5527.84 46.9012 5526.79 44.6704 5524.84 43.1117C5522.83 41.4963 5519.78 40.55 5515.44 40.55H5507.69ZM5474.59 13V122H5507.69V87.2H5515.44C5525.22 87.2 5533.42 85.7785 5539.96 82.8263C5546.59 79.8782 5551.59 75.5615 5554.83 69.8464C5558.13 64.1937 5559.74 57.5872 5559.74 50.1C5559.74 42.5191 5558.13 35.9031 5554.82 30.3375C5551.58 24.7298 5546.59 20.473 5539.97 17.5302C5533.43 14.4722 5525.22 13 5515.44 13H5474.59Z" fill="#014EFF"/>
<path fill-rule="evenodd" clip-rule="evenodd" d="M5380.13 82.5008C5377.93 78.1008 5376.83 73.1008 5376.83 67.5008C5376.83 61.8008 5377.93 56.8008 5380.13 52.5008C5382.33 48.2008 5385.43 44.8508 5389.43 42.4508C5393.43 39.9508 5398.13 38.7008 5403.53 38.7008C5409.23 38.7008 5414.03 39.9508 5417.93 42.4508C5421.93 44.8508 5424.98 48.2008 5427.08 52.5008C5429.18 56.8008 5430.23 61.8008 5430.23 67.5008C5430.23 73.1008 5429.13 78.1008 5426.93 82.5008C5424.73 86.8008 5421.63 90.2008 5417.63 92.7008C5413.73 95.1008 5409.03 96.3008 5403.53 96.3008C5398.13 96.3008 5393.43 95.1008 5389.43 92.7008C5385.43 90.2008 5382.33 86.8008 5380.13 82.5008ZM5381.92 81.5983C5383.95 85.5748 5386.8 88.6941 5390.48 90.9951C5394.12 93.1747 5398.44 94.3008 5403.53 94.3008C5408.73 94.3008 5413.05 93.1695 5416.58 91.0027C5420.26 88.701 5423.11 85.5791 5425.15 81.5984C5427.19 77.5142 5428.23 72.83 5428.23 67.5008C5428.23 62.0474 5427.23 57.3577 5425.28 53.3785C5423.35 49.4164 5420.56 46.3614 5416.9 44.1658L5416.88 44.1505L5416.85 44.1345C5413.34 41.8841 5408.94 40.7008 5403.53 40.7008C5398.45 40.7008 5394.13 41.8729 5390.49 44.1468L5390.48 44.1564L5390.46 44.1658C5386.79 46.3663 5383.95 49.4323 5381.91 53.4117C5379.88 57.3832 5378.83 62.0607 5378.83 67.5008C5378.83 72.83 5379.88 77.5142 5381.92 81.5983ZM5350.43 45.0008C5347.53 51.7008 5346.08 59.2008 5346.08 67.5008C5346.08 75.7008 5347.48 83.2508 5350.28 90.1508C5353.08 97.0508 5357.03 103.051 5362.13 108.151C5367.33 113.151 5373.43 117.051 5380.43 119.851C5387.43 122.551 5395.13 123.901 5403.53 123.901C5411.93 123.901 5419.63 122.551 5426.63 119.851C5433.73 117.051 5439.83 113.151 5444.93 108.151C5450.03 103.051 5453.98 97.0508 5456.78 90.1508C5459.58 83.2508 5460.98 75.7008 5460.98 67.5008C5460.98 59.2008 5459.53 51.7008 5456.63 45.0008C5453.83 38.2008 5449.83 32.4008 5444.63 27.6008C5439.43 22.7008 5433.33 18.9508 5426.33 16.3508C5419.43 13.6508 5411.83 12.3008 5403.53 12.3008C5395.43 12.3008 5387.88 13.6508 5380.88 16.3508C5373.98 18.9508 5367.93 22.7008 5362.73 27.6008C5357.53 32.4008 5353.43 38.2008 5350.43 45.0008ZM5361.37 26.1397C5355.96 31.1334 5351.71 37.1595 5348.6 44.1935L5348.6 44.2063C5345.57 51.1892 5344.08 58.9648 5344.08 67.5008C5344.08 75.9324 5345.52 83.7409 5348.43 90.9028C5351.33 98.0425 5355.42 104.27 5360.72 109.565L5360.73 109.579L5360.75 109.592C5366.14 114.779 5372.46 118.816 5379.69 121.708L5379.7 121.712L5379.71 121.717C5386.97 124.515 5394.92 125.901 5403.53 125.901C5412.15 125.901 5420.1 124.515 5427.35 121.717L5427.36 121.714L5427.37 121.711C5434.7 118.82 5441.03 114.779 5446.33 109.579L5446.34 109.572L5446.35 109.565C5451.64 104.27 5455.74 98.0425 5458.64 90.9028C5461.54 83.7409 5462.98 75.9324 5462.98 67.5008C5462.98 58.9716 5461.49 51.2016 5458.47 44.223C5455.57 37.1757 5451.41 31.1395 5446 26.1398C5440.6 21.0544 5434.27 17.1696 5427.04 14.4819C5419.89 11.685 5412.05 10.3008 5403.53 10.3008C5395.21 10.3008 5387.41 11.6885 5380.17 14.482C5373.04 17.1712 5366.76 21.0569 5361.37 26.1397Z" fill="#014EFF"/>
<path fill-rule="evenodd" clip-rule="evenodd" d="M5260.04 78.15V120H5230.94V15H5260.04V52.2H5301.44V15H5330.54V120H5301.44V78.15H5260.04ZM5262.04 80.15V122H5228.94V13H5262.04V50.2H5299.44V13H5332.54V122H5299.44V80.15H5262.04Z" fill="#014EFF"/>
<path fill-rule="evenodd" clip-rule="evenodd" d="M5148.5 83.3304C5148.15 82.7665 5147.81 82.19 5147.48 81.6008L5127.68 96.0008C5129.98 101.201 5133.38 105.951 5137.88 110.251C5142.38 114.451 5147.68 117.751 5153.78 120.151C5159.98 122.651 5166.68 123.901 5173.88 123.901C5178.98 123.901 5183.98 123.151 5188.88 121.651C5193.78 120.251 5198.13 118.151 5201.93 115.351C5205.83 112.451 5208.88 108.851 5211.08 104.551C5213.38 100.251 5214.53 95.3008 5214.53 89.7008C5214.53 85.5008 5213.88 81.7008 5212.58 78.3008C5211.28 74.9008 5209.43 71.9008 5207.03 69.3008C5204.63 66.6008 5201.78 64.3008 5198.48 62.4008C5195.28 60.4008 5191.73 58.7008 5187.83 57.3008C5183.33 55.7008 5179.33 54.2508 5175.83 52.9508C5172.43 51.5508 5169.73 50.1008 5167.73 48.6008C5165.83 47.0008 5164.88 45.0508 5164.88 42.7508C5164.88 40.7508 5165.73 39.1508 5167.43 37.9508C5169.13 36.7508 5171.43 36.1508 5174.33 36.1508C5176.63 36.1508 5178.88 36.6008 5181.08 37.5008C5183.28 38.4008 5185.33 39.7008 5187.23 41.4008C5189.23 43.0008 5190.98 45.0508 5192.48 47.5508L5214.38 35.4011C5214.15 34.9781 5213.92 34.5555 5213.67 34.1338C5213.58 33.9756 5213.49 33.8175 5213.39 33.6594C5211.58 30.6547 5209.21 27.6852 5206.28 24.7508C5202.78 21.1508 5198.33 18.2008 5192.93 15.9008C5187.53 13.5008 5181.13 12.3008 5173.73 12.3008C5166.63 12.3008 5160.18 13.5008 5154.38 15.9008C5148.58 18.3008 5143.93 21.8008 5140.43 26.4008C5136.93 30.9008 5135.18 36.4508 5135.18 43.0508C5135.18 48.2508 5136.13 52.7508 5138.03 56.5508C5140.03 60.3508 5142.48 63.5508 5145.38 66.1508C5148.38 68.7508 5151.48 70.9008 5154.68 72.6008C5157.88 74.2008 5160.78 75.5008 5163.38 76.5008C5168.68 78.5008 5172.78 80.2008 5175.68 81.6008C5178.68 83.0008 5180.78 84.4008 5181.98 85.8008C5183.18 87.1008 5183.78 88.7508 5183.78 90.7508C5183.78 93.5508 5182.73 95.7008 5180.63 97.2008C5178.53 98.6008 5175.88 99.3008 5172.68 99.3008C5169.38 99.3008 5166.18 98.6008 5163.08 97.2008C5159.98 95.8008 5157.13 93.8008 5154.53 91.2008C5152.34 88.9307 5150.33 86.3073 5148.5 83.3304ZM5155.95 89.8C5153.49 87.2381 5151.24 84.1812 5149.21 80.6136L5148.11 78.6665L5125.19 95.3331L5125.85 96.8098C5128.26 102.271 5131.82 107.233 5136.49 111.697L5136.5 111.705L5136.51 111.713C5141.2 116.094 5146.72 119.523 5153.04 122.009C5159.49 124.61 5166.44 125.901 5173.88 125.901C5179.17 125.901 5184.36 125.123 5189.44 123.569C5194.55 122.108 5199.11 119.91 5203.11 116.961L5203.12 116.956C5207.26 113.878 5210.51 110.046 5212.85 105.479C5215.32 100.852 5216.53 95.5743 5216.53 89.7008C5216.53 85.2937 5215.84 81.2468 5214.44 77.5865C5213.06 73.9619 5211.08 70.7471 5208.51 67.958C5205.97 65.1036 5202.96 62.6804 5199.51 60.6857C5196.18 58.6114 5192.51 56.8576 5188.5 55.4184L5188.5 55.4164C5184.02 53.8237 5180.04 52.3811 5176.55 51.0882C5173.29 49.7412 5170.78 48.383 5168.97 47.0354C5167.51 45.7898 5166.88 44.3936 5166.88 42.7508C5166.88 41.4312 5167.38 40.4279 5168.58 39.5847C5169.83 38.7001 5171.68 38.1508 5174.33 38.1508C5176.36 38.1508 5178.35 38.5469 5180.32 39.3519C5182.29 40.1594 5184.15 41.3324 5185.89 42.8913L5185.93 42.9281L5185.98 42.9625C5187.77 44.395 5189.37 46.2557 5190.76 48.5798L5191.76 50.2376L5217.06 36.1995L5216.14 34.4673C5214.14 30.6603 5211.31 26.9556 5207.7 23.3466C5203.99 19.5349 5199.32 16.4507 5193.72 14.0669C5188.02 11.5327 5181.33 10.3008 5173.73 10.3008C5166.4 10.3008 5159.68 11.5401 5153.61 14.0528C5147.52 16.5746 5142.57 20.2791 5138.84 25.1804C5135.03 30.0838 5133.18 36.0828 5133.18 43.0508C5133.18 48.4929 5134.17 53.3122 5136.24 57.4452L5136.25 57.4638L5136.26 57.4823C5138.36 61.471 5140.95 64.8659 5144.04 67.6399L5144.05 67.6511L5144.07 67.6622C5147.17 70.3515 5150.39 72.59 5153.74 74.367L5153.76 74.3786L5153.78 74.3896C5157.02 76.0108 5159.98 77.339 5162.66 78.3675L5162.67 78.372C5167.95 80.3642 5171.98 82.0399 5174.81 83.4019L5174.82 83.4076L5174.83 83.4131C5177.75 84.7736 5179.54 86.0276 5180.46 87.1024L5180.48 87.1303L5180.51 87.1573C5181.32 88.0391 5181.78 89.1829 5181.78 90.7508C5181.78 92.9566 5181 94.4675 5179.49 95.5549C5177.8 96.6725 5175.57 97.3008 5172.68 97.3008C5169.67 97.3008 5166.75 96.6649 5163.9 95.3781C5161.04 94.0876 5158.39 92.2365 5155.95 89.8Z" fill="#014EFF"/>
<path fill-rule="evenodd" clip-rule="evenodd" d="M5044.69 15L5026.24 51.75L5007.64 15H4974.04L5011.39 78.3V120H5041.09V78L5078.29 15H5044.69ZM5043.09 78.5464L5081.79 13H5043.45L5026.23 47.3068L5008.87 13H4970.54L5009.39 78.8461V122H5043.09V78.5464Z" fill="#014EFF"/>
<path fill-rule="evenodd" clip-rule="evenodd" d="M4893.15 15V120H4922.25V85.2H4932C4941.6 85.2 4949.5 83.8 4955.7 81C4962 78.2 4966.65 74.15 4969.65 68.85C4972.75 63.55 4974.3 57.3 4974.3 50.1C4974.3 42.8 4972.75 36.55 4969.65 31.35C4966.65 26.15 4962 22.15 4955.7 19.35C4949.5 16.45 4941.6 15 4932 15H4893.15ZM4922.25 61.8H4932C4936.6 61.8 4940.15 60.8 4942.65 58.8C4945.15 56.8 4946.4 53.9 4946.4 50.1C4946.4 46.4 4945.15 43.55 4942.65 41.55C4940.15 39.55 4936.6 38.55 4932 38.55H4922.25V61.8ZM4924.25 40.55V59.8H4932C4936.34 59.8 4939.38 58.8537 4941.4 57.2383C4943.33 55.6904 4944.4 53.4191 4944.4 50.1C4944.4 46.9012 4943.35 44.6704 4941.4 43.1117C4939.38 41.4963 4936.34 40.55 4932 40.55H4924.25ZM4891.15 13V122H4924.25V87.2H4932C4941.77 87.2 4949.97 85.7781 4956.52 82.8253C4963.15 79.8772 4968.14 75.5608 4971.38 69.8464C4974.69 64.1937 4976.3 57.5872 4976.3 50.1C4976.3 42.5198 4974.69 35.9044 4971.37 30.3392C4968.14 24.7307 4963.14 20.4733 4956.53 17.5302C4949.98 14.4722 4941.77 13 4932 13H4891.15Z" fill="#014EFF"/>
<path fill-rule="evenodd" clip-rule="evenodd" d="M4796.47 15V120H4825.57V85.2H4835.32C4844.92 85.2 4852.82 83.8 4859.02 81C4865.32 78.2 4869.97 74.15 4872.97 68.85C4876.07 63.55 4877.62 57.3 4877.62 50.1C4877.62 42.8 4876.07 36.55 4872.97 31.35C4869.97 26.15 4865.32 22.15 4859.02 19.35C4852.82 16.45 4844.92 15 4835.32 15H4796.47ZM4825.57 61.8H4835.32C4839.92 61.8 4843.47 60.8 4845.97 58.8C4848.47 56.8 4849.72 53.9 4849.72 50.1C4849.72 46.4 4848.47 43.55 4845.97 41.55C4843.47 39.55 4839.92 38.55 4835.32 38.55H4825.57V61.8ZM4827.57 40.55V59.8H4835.32C4839.66 59.8 4842.7 58.8537 4844.72 57.2383C4846.65 55.6904 4847.72 53.4191 4847.72 50.1C4847.72 46.9012 4846.67 44.6704 4844.72 43.1117C4842.7 41.4963 4839.66 40.55 4835.32 40.55H4827.57ZM4794.47 13V122H4827.57V87.2H4835.32C4845.09 87.2 4853.29 85.7781 4859.84 82.8253C4866.47 79.8772 4871.47 75.5608 4874.7 69.8464C4878.01 64.1937 4879.62 57.5872 4879.62 50.1C4879.62 42.5198 4878.01 35.9044 4874.69 30.3392C4871.46 24.7307 4866.46 20.4733 4859.85 17.5302C4853.3 14.4722 4845.09 13 4835.32 13H4794.47Z" fill="#014EFF"/>
<path fill-rule="evenodd" clip-rule="evenodd" d="M4718.53 81.6H4739.27L4728.84 58.05L4718.53 81.6ZM4721.59 79.6H4736.2L4728.85 63.0115L4721.59 79.6ZM4713.27 103.05L4704.69 120H4671.69L4728.84 7.95001L4786.14 120H4753.14L4744.28 103.05H4713.27ZM4714.5 105.05L4705.92 122H4668.43L4728.84 3.55273L4789.41 122H4751.93L4743.07 105.05H4714.5Z" fill="#014EFF"/>
<path fill-rule="evenodd" clip-rule="evenodd" d="M4590.9 78.15V120H4561.8V15H4590.9V52.2H4632.3V15H4661.4V120H4632.3V78.15H4590.9ZM4592.9 80.15V122H4559.8V13H4592.9V50.2H4630.3V13H4663.4V122H4630.3V80.15H4592.9Z" fill="#014EFF"/>
</svg>
